<svg xmlns="http://www.w3.org/2000/svg" xmlns:xlink="http://www.w3.org/1999/xlink" version="1.1" id="Your_Icon" x="0px" y="0px" width="100px" height="100px" viewBox="0 0 100 100" enable-background="new 0 0 100 100" xml:space="preserve">
<g>
	<g>
		<g>
			<g>
			</g>
		</g>
		<g>
		</g>
	</g>
</g>
<g>
	<path d="M74.819,74.436c0,0.438,0.354,0.793,0.792,0.793c0.438,0,0.793-0.355,0.793-0.793s-0.355-0.793-0.793-0.793   c-0.015,0-0.026,0.008-0.041,0.008l-4.722-5.821V56.181h9.465v-1.537h-0.559v-7.049h0.559v-1.537H59.468v1.537h0.541v5.147   c-2.558-1.768-5.655-2.81-9-2.81c-2.578,0-5.004,0.629-7.155,1.721l0.195-1.958l0.348,0.035l0.151-1.529l-21.645-2.145   l-0.152,1.529l0.414,0.041l-0.794,7.977h-2.936v-0.373c0-1.096-0.717-2.014-1.704-2.34v-1.594h-0.421v-9.045   c0.247-0.134,0.421-0.387,0.421-0.688c0-0.023-0.011-0.042-0.013-0.065l9.58-4.979c1.43,0.451,2.99,0.848,4.647,1.159   c7.333,1.374,13.634,0.593,14.071-1.744c0.438-2.338-5.15-5.348-12.485-6.723c-7.333-1.375-13.634-0.594-14.073,1.744   c-0.316,1.686,2.51,3.717,6.854,5.237l-9.007,4.682c-0.111-0.06-0.233-0.103-0.369-0.103c-0.404,0-0.724,0.307-0.773,0.697   l-9.026,4.691c-0.183,0.095-0.253,0.319-0.159,0.501c0.067,0.127,0.197,0.201,0.331,0.201c0.058,0,0.117-0.013,0.171-0.042   l8.956-4.655c0.04,0.033,0.083,0.062,0.128,0.086v9.045h-0.421v1.608c-0.963,0.338-1.659,1.246-1.659,2.325v2.422   c0,1.079,0.695,1.987,1.659,2.326v14.273l-9.893,6.167c-0.061-0.016-0.118-0.037-0.183-0.037c-0.438,0-0.792,0.355-0.792,0.792   c0,0.438,0.354,0.793,0.792,0.793c0.401,0,0.719-0.302,0.772-0.688l10.109-6.302l11.166,6.313c0.058,0.381,0.373,0.677,0.77,0.677   c0.438,0,0.793-0.354,0.793-0.793c0-0.437-0.355-0.792-0.793-0.792c-0.067,0-0.126,0.021-0.188,0.038L17.732,74.22V59.991   c0.987-0.325,1.704-1.244,1.704-2.34V57.28h2.769l-0.63,6.325l-0.387-0.038l-0.151,1.53l14.151,1.401   c0.062,1.354,0.284,2.664,0.664,3.908c-0.529,0.358-0.75,1.041-0.466,1.636l0.38,0.796l-1.924,7.599   c-0.296,0.116-0.507,0.4-0.507,0.735c0,0.438,0.354,0.793,0.793,0.793c0.438,0,0.793-0.354,0.793-0.793   c0-0.264-0.138-0.486-0.337-0.631l1.703-6.726c0.319,0.435,0.853,0.622,1.373,0.483c2.815,4.405,7.737,7.333,13.352,7.333   c5.468,0,10.271-2.781,13.119-6.993l0.338,0.288l0.517-0.604c0.342-0.045,0.661-0.213,0.878-0.506l1.702,6.725   c-0.199,0.144-0.337,0.367-0.337,0.631c0,0.438,0.354,0.793,0.793,0.793s0.793-0.354,0.793-0.793c0-0.335-0.211-0.619-0.507-0.735   L66.38,72.84l0.163-0.341l1.388-1.624l1.332,0.866v0.522h1.586v-0.49l1.198-0.811l2.781,3.429   C74.827,74.406,74.819,74.419,74.819,74.436z M69.263,70.854l-0.844-0.55l0.844-0.987V70.854z M69.263,67.714L66.65,70.77   c-0.118-0.176-0.263-0.335-0.461-0.441c0.43-1.441,0.669-2.965,0.669-4.546c0-3.614-1.224-6.936-3.26-9.602h5.664V67.714z    M70.849,70.875v-1.39l0.728,0.897L70.849,70.875z"/>
	<path d="M94.888,39.053H71.623l10.785,3.354v27.558l-9.238,10.44c-0.04-0.007-0.077-0.024-0.119-0.024   c-0.438,0-0.794,0.355-0.794,0.792c0,0.438,0.355,0.793,0.794,0.793c0.418,0,0.751-0.325,0.781-0.735l9.109-10.294l9.682,10.326   c0.047,0.394,0.37,0.703,0.777,0.703c0.437,0,0.791-0.354,0.791-0.793c0-0.437-0.354-0.792-0.791-0.792   c-0.053,0-0.098,0.02-0.147,0.029l-9.802-10.452V42.443L94.888,39.053z"/>
	<path d="M83.19,34.888v-7.694c0-0.144-0.116-0.261-0.261-0.261c-0.144,0-0.26,0.117-0.26,0.261v7.726l-11.047,3.435h23.265   L83.19,34.888z"/>
</g>
</svg>