<svg xmlns="http://www.w3.org/2000/svg" xmlns:xlink="http://www.w3.org/1999/xlink" version="1.1" id="Layer_1" x="0px" y="0px" width="100px" height="100px" viewBox="0 0 100 100" enable-background="new 0 0 100 100" xml:space="preserve">
<g>
	<g>
		<path d="M31.489,37.018v-4.573c0-0.412,0.057-0.812,0.15-1.195c2.354-0.421,4.402-1.819,5.665-3.799h2.835    c2.751,0,4.99,2.24,4.99,4.994v4.573c0,2.754-2.239,4.994-4.99,4.994h-3.66C33.729,42.012,31.489,39.771,31.489,37.018z     M36.249,63.167h3.659c2.753,0,4.991-2.243,4.991-4.998v-4.568c0-2.755-2.238-4.995-4.991-4.995h-3.659    c-2.754,0-4.994,2.24-4.994,4.995v4.568C31.255,60.924,33.495,63.167,36.249,63.167z M32.818,29.062    c0.737-0.318,1.405-0.764,1.978-1.312C34.034,28.024,33.357,28.479,32.818,29.062z M23.396,27.988    c-0.093-0.045-0.184-0.094-0.28-0.135c-0.075,0.003-0.152,0.008-0.227,0.008c-0.824,0-1.62-0.146-2.361-0.411h-3.033    c-2.755,0-4.995,2.24-4.995,4.994v4.569c0,2.756,2.24,4.998,4.995,4.998h3.658c2.754,0,4.994-2.242,4.994-4.998v-4.569    c0-0.897-0.242-1.739-0.658-2.467C24.69,29.447,23.985,28.775,23.396,27.988z M58.696,27.45h-3.65    c-2.758,0-4.998,2.24-4.998,4.994v4.573c0,2.754,2.24,4.994,4.998,4.994h3.65c2.754,0,4.994-2.24,4.994-4.994v-4.573    C63.69,29.69,61.45,27.45,58.696,27.45z M94.358,44.146c0,0-0.246,17.913-2.166,23.486c-4.17,12.114-14.35,16.959-23.451,16.959    h-3.123c-0.191,0-0.338-0.027-0.518-0.031c-1.754,6.029-3.348,11.091-3.348,11.091c0,2.404-1.941,4.349-4.346,4.349H18.784    c-2.404,0-4.349-1.944-4.349-4.349c0,0-7.297-18.321-8.232-26.763c-1.263-11.395,0-45.846,0-45.846c0-1.978,1.323-3.644,3.13-4.17    h3.048c0.444,1.829,1.849,3.285,3.647,3.805c0.332,1.147,0.946,2.175,1.756,3.008h-0.289c-3.729,0-6.761,3.032-6.761,6.759v4.569    c0,3.73,3.032,6.764,6.761,6.764h3.658c3.727,0,6.76-3.033,6.76-6.764v-4.569c0-0.486-0.055-0.959-0.152-1.417    c0.66,0.195,1.349,0.311,2.057,0.34c-0.057,0.351-0.094,0.709-0.094,1.077v4.573c0,3.729,3.031,6.76,6.756,6.76h3.66    c3.724,0,6.756-3.031,6.756-6.76v-4.573c0-3.727-3.032-6.759-6.756-6.759h-0.826c2.328-0.721,4.172-2.604,4.824-4.967    c1.266-0.2,2.404-0.857,3.215-1.846h19.506c1.811,0.526,3.129,2.192,3.129,4.17c0,0,0.059,1.783,0.133,4.639h7.77    C86.987,27.682,94.358,35.052,94.358,44.146z M29.489,58.169c0,3.729,3.033,6.763,6.76,6.763h3.659    c3.726,0,6.757-3.033,6.757-6.763v-4.568c0-3.728-3.031-6.76-6.757-6.76h-3.659c-3.727,0-6.76,3.032-6.76,6.76V58.169z     M20.927,64.932c3.724,0,6.755-3.033,6.755-6.763v-4.568c0-3.728-3.031-6.76-6.755-6.76h-3.66c-3.729,0-6.763,3.032-6.763,6.76    v4.568c0,3.729,3.034,6.763,6.763,6.763H20.927z M36.601,75.278c0-3.728-3.029-6.759-6.752-6.759h-3.664    c-3.725,0-6.756,3.031-6.756,6.759l2.049,13.413c0.047,3.84,3.008,6.839,6.77,6.839h1.602c3.723,0,6.752-3.033,6.752-6.76V75.278z     M56.78,74.954v-0.067c-0.014-3.646-3.047-6.609-6.768-6.609h-3.662c-3.723,0-6.753,3.033-6.753,6.761v13.489    c0,3.729,3.03,6.761,6.753,6.761h1.6c3.707,0,6.727-2.995,6.764-6.69L56.78,74.954z M65.226,52.741    c0-3.726-3.029-6.756-6.754-6.756h-3.66c-3.727,0-6.758,3.03-6.758,6.756v4.573c0,3.727,3.031,6.758,6.758,6.758h3.66    c3.725,0,6.754-3.031,6.754-6.758V52.741z M65.456,32.444c0-3.727-3.033-6.759-6.76-6.759h-3.65c-3.729,0-6.764,3.032-6.764,6.759    v4.573c0,3.729,3.035,6.76,6.764,6.76h3.65c3.727,0,6.76-3.031,6.76-6.76V32.444z M88.356,46.057    c0-7.377-2.027-12.096-13.311-12.096c-1.914,0-3.617,0.851-4.764,1.607c0.16,10.533,0.176,24.886-0.762,31.44    c-0.307,2.146-1.111,5.523-2.09,9.213c4.469,5.558,15.832-1.425,19.164-11.103C88.153,60.594,88.356,46.057,88.356,46.057z     M25.916,58.169v-4.568c0-2.755-2.238-4.995-4.989-4.995h-3.66c-2.756,0-4.998,2.24-4.998,4.995v4.568    c0,2.755,2.242,4.998,4.998,4.998h3.66C23.678,63.167,25.916,60.924,25.916,58.169z M58.472,47.75h-3.66    c-2.752,0-4.992,2.239-4.992,4.991v4.573c0,2.752,2.24,4.993,4.992,4.993h3.66c2.75,0,4.988-2.241,4.988-4.993v-4.573    C63.46,49.989,61.222,47.75,58.472,47.75z M29.849,70.285h-3.664c-2.729,0-4.955,2.206-4.989,4.929l2.048,13.403    c0.008,2.887,2.207,5.146,5.004,5.146h1.602c2.749,0,4.986-2.238,4.986-4.993V75.278C34.835,72.525,32.598,70.285,29.849,70.285z     M50.013,70.044h-3.662c-2.749,0-4.986,2.239-4.986,4.994v13.489c0,2.756,2.237,4.996,4.986,4.996h1.6    c2.758,0,4.998-2.24,4.998-4.996l0.008-0.132l2.057-13.568C54.968,72.228,52.692,70.044,50.013,70.044z M36.688,1.912    c-3.931,0-7.547,1.987-9.675,5.317l-0.866,1.355l-1.482-0.621c-0.521-0.218-1.07-0.327-1.636-0.327    c-2.044,0-3.802,1.46-4.181,3.473l-0.292,1.559H16.97c-0.076,0-0.146-0.003-0.205-0.01c-2.014,0.029-3.829,0.997-4.979,2.536    h2.262h2.195l-0.301,2.173l-0.008,0.068c-0.01,0.069-0.024,0.165-0.025,0.197c0,0.847,0.676,1.54,1.518,1.57    c0.032-0.001,0.066-0.002,0.103-0.002h1.769l0.139,1.764c0.14,1.805,1.656,3.218,3.453,3.218c0.238,0,0.504-0.037,0.839-0.118    l1.468-0.352l0.684,1.345c0.831,1.636,2.467,2.649,4.27,2.649c2.295,0,4.28-1.633,4.719-3.883l0.328-1.684l1.71,0.145    c0.093,0.007,0.183,0.019,0.274,0.031c0.025,0.003,0.05,0.007,0.074,0.009c1.871-0.012,3.419-1.542,3.459-3.421l0.048-2.301    l2.253,0.468c0.105,0.023,0.205,0.034,0.303,0.034c0.584,0,1.116-0.332,1.388-0.866l0.532-1.044h1.172h18.859    c-1.266-1.518-3.141-2.464-5.195-2.513l-1.232-0.031l-0.48-1.135c-0.998-2.356-3.299-3.878-5.857-3.878    c-0.439,0-0.9,0.054-1.398,0.167l-1.338,0.303l-0.715-1.169c-0.293-0.478-0.793-0.762-1.334-0.762    c-0.135,0-0.295,0.031-0.488,0.094L46.049,6.65L45.22,5.729C43.034,3.303,39.925,1.912,36.688,1.912 M36.688,0    c3.954,0,7.498,1.724,9.951,4.449c0.342-0.111,0.699-0.187,1.078-0.187c1.26,0,2.352,0.676,2.965,1.675    c0.586-0.132,1.193-0.215,1.82-0.215c3.424,0,6.361,2.081,7.619,5.046c3.939,0.096,7.211,2.74,8.311,6.338H46.409    c-0.576,1.13-1.739,1.91-3.092,1.91c-0.236,0-0.467-0.026-0.691-0.073c-0.062,2.934-2.449,5.294-5.395,5.294    c-0.168,0-0.324-0.035-0.486-0.048c-0.604,3.093-3.324,5.429-6.596,5.429c-2.619,0-4.864-1.512-5.975-3.695    c-0.414,0.101-0.842,0.171-1.285,0.171c-2.84,0-5.145-2.198-5.36-4.981c-0.017,0-0.03,0.004-0.045,0.004    c-1.925,0-3.487-1.561-3.487-3.486c0-0.18,0.028-0.351,0.051-0.524h-5.22c0.865-3.644,4.12-6.36,8.028-6.36    c0.041,0,0.075,0.01,0.113,0.01c0.536-2.863,3.039-5.034,6.06-5.034c0.841,0,1.642,0.171,2.372,0.477    C27.782,2.474,31.941,0,36.688,0L36.688,0z"/>
	</g>
</g>
</svg>