<svg xmlns="http://www.w3.org/2000/svg" xmlns:xlink="http://www.w3.org/1999/xlink" version="1.1" id="Your_Icon" x="0px" y="0px" width="100px" height="100px" viewBox="0 0 100 100" enable-background="new 0 0 100 100" xml:space="preserve">
<g>
	<path d="M51.4,47.258l22.74-10.94l0.63-1.41L50.47,46.598l-17.659-12.6l-9.79,4.71l17.659,12.59L4.43,68.728l0.9,0.68l36.28-17.439   l44.17,31.5l9.79-4.7L51.4,47.258z M32.66,39.678c-0.75,0.36-2.08,0.14-2.97-0.49c-0.88-0.63-0.99-1.43-0.23-1.8   c0.75-0.36,2.08-0.14,2.96,0.49C33.311,38.518,33.41,39.318,32.66,39.678z"/>
	<path d="M21.574,39.388l13.807,9.849L7.845,62.477c-3.821-2.725-4.276-6.188-1.028-7.75l12.344-5.935   c1.183-0.569,0.979-2.576,0.87-4.339C18.864,42.442,19.338,40.463,21.574,39.388z"/>
	<path d="M75.676,29.86L48.14,43.102l-13.807-9.849c2.237-1.077,5.644-0.963,8.782,0.1c2.934,0.406,6.258,0.913,7.438,0.345   l12.334-5.931C66.146,26.199,71.855,27.135,75.676,29.86z"/>
	<polygon points="92.57,27.458 83.641,31.748 84.271,30.338 91.62,26.803  "/>
	<path d="M88.37,19.298l-13.34,29.95c-0.5,1.15-1.729,1.76-2.91,1.54l-2.2,4.94c-0.079,0.17-0.39,0.189-0.71,0.05   c-0.26-0.12-0.449-0.32-0.449-0.479c0-0.03,0.01-0.051,0.02-0.08l2.2-4.94c-0.4-0.31-0.69-0.72-0.87-1.16   c-0.24-0.63-0.24-1.37,0.05-2.03l13.34-29.96c0.221-0.51,0.82-0.73,1.32-0.51l3.04,1.36C88.37,18.198,88.591,18.788,88.37,19.298z"/>
	<polygon points="93.754,73.88 70.028,56.921 70.952,56.353 94.735,73.351  "/>
</g>
</svg>